<svg xmlns="http://www.w3.org/2000/svg" viewBox="0 0 44 44" fill="none">
  <ellipse cx="22" cy="7"    rx="3.5" ry="2"   fill="#F0B429" opacity=".95" transform="rotate(-20 22 7)"/>
  <ellipse cx="28" cy="8.5"  rx="3.2" ry="1.8" fill="#F0B429" opacity=".9"  transform="rotate(5 28 8.5)"/>
  <ellipse cx="33" cy="12"   rx="3"   ry="1.7" fill="#F0B429" opacity=".85" transform="rotate(30 33 12)"/>
  <ellipse cx="36" cy="17.5" rx="2.8" ry="1.6" fill="#F0B429" opacity=".8"  transform="rotate(55 36 17.5)"/>
  <ellipse cx="36" cy="23.5" rx="2.6" ry="1.5" fill="#F0B429" opacity=".75" transform="rotate(80 36 23.5)"/>
  <ellipse cx="33" cy="29"   rx="2.4" ry="1.4" fill="#F0B429" opacity=".7"  transform="rotate(105 33 29)"/>
  <ellipse cx="28" cy="33.5" rx="2.2" ry="1.3" fill="#F0B429" opacity=".65" transform="rotate(130 28 33.5)"/>
  <ellipse cx="22" cy="36"   rx="2"   ry="1.2" fill="#F0B429" opacity=".6"  transform="rotate(155 22 36)"/>
  <ellipse cx="16" cy="35"   rx="1.9" ry="1.1" fill="#F0B429" opacity=".55" transform="rotate(175 16 35)"/>
  <ellipse cx="11" cy="31.5" rx="1.8" ry="1"   fill="#F0B429" opacity=".55" transform="rotate(-155 11 31.5)"/>
  <ellipse cx="8"  cy="26.5" rx="2"   ry="1.2" fill="#F0B429" opacity=".62" transform="rotate(-130 8 26.5)"/>
  <ellipse cx="7.5" cy="21"  rx="2.3" ry="1.4" fill="#F0B429" opacity=".7"  transform="rotate(-105 7.5 21)"/>
  <ellipse cx="9"  cy="15.5" rx="2.6" ry="1.6" fill="#F0B429" opacity=".78" transform="rotate(-80 9 15.5)"/>
  <ellipse cx="13" cy="10.5" rx="3"   ry="1.8" fill="#F0B429" opacity=".86" transform="rotate(-55 13 10.5)"/>
  <ellipse cx="17.5" cy="7.5" rx="3.3" ry="1.9" fill="#F0B429" opacity=".93" transform="rotate(-30 17.5 7.5)"/>
  <circle cx="22" cy="22" r="9" fill="#1B2D6B"/>
</svg>
